<svg width="267" height="81" viewBox="0 0 267 81" fill="none" xmlns="http://www.w3.org/2000/svg">
<path d="M85.6562 15.9062C85.1562 14.9688 84.8125 14.1562 84.625 13.4688C84.4375 12.7812 84.3438 11.9688 84.3438 11.0312C84.3438 10.7188 84.3438 10.4062 84.3438 10.0938C84.4062 9.78125 84.5 9.5 84.625 9.25C84.8125 9 85.0625 8.8125 85.375 8.6875C85.75 8.5625 86.2188 8.59375 86.7812 8.78125C87.1562 8.90625 87.5312 9.15625 87.9062 9.53125C88.2812 9.84375 88.625 10.2812 88.9375 10.8438C89.3125 11.3438 89.5938 11.8438 89.7812 12.3438C90.0312 12.8438 90.2188 13.25 90.3438 13.5625C91.7812 12.4375 93.3438 11.3125 95.0312 10.1875C96.7188 9 98.5 7.96875 100.375 7.09375C102.312 6.15625 104.25 5.40625 106.188 4.84375C108.188 4.28125 110.094 4 111.906 4C112.531 4 113.281 4.0625 114.156 4.1875C115.031 4.3125 115.844 4.53125 116.594 4.84375C117.406 5.15625 118.062 5.59375 118.562 6.15625C119.125 6.65625 119.406 7.3125 119.406 8.125C119.594 9.625 119.406 11.1562 118.844 12.7188C118.344 14.2188 117.625 15.6875 116.688 17.125C115.812 18.5625 114.781 19.9688 113.594 21.3438C112.469 22.7188 111.312 24.0312 110.125 25.2812C109 26.5312 107.938 27.6875 106.938 28.75C106 29.8125 105.281 30.75 104.781 31.5625C107.344 29.875 110.094 28.6562 113.031 27.9062C116.031 27.0938 119.031 26.6875 122.031 26.6875C122.969 26.6875 123.969 26.75 125.031 26.875C126.156 26.9375 127.188 27.1562 128.125 27.5312C129.062 27.9062 129.844 28.4375 130.469 29.125C131.094 29.8125 131.406 30.7812 131.406 32.0312C131.406 33.2812 130.812 35.0312 129.625 37.2812C128.5 39.4688 127 41.9062 125.125 44.5938C123.312 47.2188 121.281 49.9062 119.031 52.6562C116.844 55.3438 114.719 57.8125 112.656 60.0625C110.594 62.25 108.719 64.0625 107.031 65.5C105.406 66.875 104.25 67.5625 103.562 67.5625L101.125 66.4375C101.438 65.25 102.219 63.8438 103.469 62.2188C104.719 60.5938 106.188 58.9062 107.875 57.1562C109.625 55.4062 111.469 53.5625 113.406 51.625C115.406 49.6875 117.281 47.8125 119.031 46C120.781 44.1875 122.312 42.4375 123.625 40.75C124.938 39 125.781 37.4375 126.156 36.0625C126.594 34.625 126.438 33.4375 125.688 32.5C124.938 31.5 123.406 30.75 121.094 30.25C118.656 30.25 116.094 30.6875 113.406 31.5625C110.719 32.375 108.156 33.5625 105.719 35.125C103.281 36.6875 101.094 38.5625 99.1562 40.75C97.2812 42.875 95.9062 45.2812 95.0312 47.9688C95.0312 49.7188 95.1562 51.4375 95.4062 53.125C95.7188 54.8125 96.0312 56.5 96.3438 58.1875C96.6562 59.8125 96.9375 61.4688 97.1875 63.1562C97.5 64.8438 97.6562 66.5312 97.6562 68.2188C97.6562 69.4688 97.5625 70.5 97.375 71.3125C97.1875 72.125 96.4062 72.5312 95.0312 72.5312C94.9062 72.5312 94.6875 72.5312 94.375 72.5312C94.125 72.4688 94 72.4062 94 72.3438L85.6562 15.9062ZM91.6562 21.8125C91.6562 24.125 91.8125 26.5938 92.125 29.2188C92.4375 31.7812 93.0625 34.1562 94 36.3438C94.9375 35.5312 96.0938 34.4688 97.4688 33.1562C98.9062 31.7812 100.375 30.3125 101.875 28.75C103.438 27.1875 104.938 25.5312 106.375 23.7812C107.875 22.0312 109.219 20.3438 110.406 18.7188C111.656 17.0938 112.625 15.5938 113.312 14.2188C114.062 12.7812 114.438 11.5938 114.438 10.6562C114.438 9.90625 114.188 9.40625 113.688 9.15625C113.25 8.90625 112.719 8.78125 112.094 8.78125C110.594 8.78125 108.656 9.09375 106.281 9.71875C103.969 10.3438 101.719 11.2188 99.5312 12.3438C97.4062 13.4688 95.5625 14.8438 94 16.4688C92.4375 18.0312 91.6562 19.8125 91.6562 21.8125Z" fill="#FD9241"/>
<path d="M137.5 71.6875C137.5 67.625 137.406 63.3438 137.219 58.8438C137.094 54.3438 136.938 49.8125 136.75 45.25C136.625 40.625 136.594 36.0938 136.656 31.6562C136.719 27.2188 137 23.0625 137.5 19.1875C137.625 19.125 137.906 19.0938 138.344 19.0938C138.844 19.0312 139.188 19 139.375 19C140.25 19 140.938 19.1562 141.438 19.4688C142 19.7188 142.281 20.3125 142.281 21.25C142.281 24.9375 142.25 28.9688 142.188 33.3438C142.188 37.6562 142.156 42.0625 142.094 46.5625C142.094 51 142.094 55.4062 142.094 59.7812C142.094 64.1562 142.156 68.125 142.281 71.6875C142.344 72.75 142.125 73.4375 141.625 73.75C141.188 74.125 140.625 74.3125 139.938 74.3125C139.188 74.3125 138.562 74.125 138.062 73.75C137.562 73.4375 137.375 72.75 137.5 71.6875ZM135.438 4.5625C135.438 3.8125 135.688 3.3125 136.188 3.0625C136.688 2.8125 137.25 2.6875 137.875 2.6875C139.125 2.6875 139.906 3.09375 140.219 3.90625C140.531 4.71875 140.688 5.65625 140.688 6.71875C140.312 7.40625 139.844 7.90625 139.281 8.21875C138.719 8.46875 138.125 8.53125 137.5 8.40625C136.938 8.21875 136.438 7.8125 136 7.1875C135.625 6.5625 135.438 5.6875 135.438 4.5625Z" fill="#FD9241"/>
<path d="M151.469 1.5625C152.781 0.3125 153.812 -0.1875 154.562 0.0625C155.375 0.3125 155.969 1.15625 156.344 2.59375C156.719 4.03125 156.938 5.90625 157 8.21875C157.062 10.5312 157.031 13.1562 156.906 16.0938C156.844 18.9688 156.688 22.0312 156.438 25.2812C156.188 28.4688 155.969 31.625 155.781 34.75C155.594 37.8125 155.469 40.75 155.406 43.5625C155.344 46.375 155.438 48.8125 155.688 50.875H155.969C156.094 50.875 156.188 50.8438 156.25 50.7812C159.5 47.5312 162.406 44.0938 164.969 40.4688C167.531 36.8438 169.844 33.4375 171.906 30.25C173.969 27 175.781 24.1875 177.344 21.8125C178.969 19.4375 180.469 17.8125 181.844 16.9375C182.781 16.9375 183.562 17.0938 184.188 17.4062C184.875 17.7188 185.219 18.4375 185.219 19.5625C185.219 19.6875 185.188 19.9062 185.125 20.2188C185.125 20.4688 185.125 20.6562 185.125 20.7812C183.562 23.9688 181.844 27.1875 179.969 30.4375C178.094 33.625 176.062 36.7188 173.875 39.7188C171.688 42.7188 169.312 45.5625 166.75 48.25C164.25 50.9375 161.531 53.375 158.594 55.5625C158.594 55.625 158.562 55.75 158.5 55.9375C158.5 56.0625 158.5 56.1562 158.5 56.2188C158.5 56.8438 159 57.5312 160 58.2812C161.062 59.0312 162.375 59.75 163.938 60.4375C165.562 61.125 167.344 61.8125 169.281 62.5C171.281 63.1875 173.219 63.7812 175.094 64.2812C177.031 64.7812 178.812 65.1875 180.438 65.5C182.125 65.8125 183.438 65.9688 184.375 65.9688C184.375 66.2188 184.375 66.6875 184.375 67.375C184.438 68.0625 184.406 68.7812 184.281 69.5312C184.156 70.2812 183.938 70.9688 183.625 71.5938C183.312 72.1562 182.812 72.4375 182.125 72.4375H181.75C181.625 72.4375 181.531 72.4062 181.469 72.3438L154.656 61.5625C154.594 65.25 154.344 68.25 153.906 70.5625C153.469 72.8125 152.938 74.4688 152.312 75.5312C151.75 76.6562 151.125 77.1875 150.438 77.125C149.812 77.0625 149.25 76.5625 148.75 75.625L151.469 1.5625Z" fill="#FD9241"/>
<path d="M213.719 62.6875C213.469 63.4375 212.844 64.4688 211.844 65.7812C210.906 67.0312 209.781 68.3125 208.469 69.625C207.156 70.875 205.781 72 204.344 73C202.969 73.9375 201.75 74.4062 200.688 74.4062C198.688 74.4062 197.031 73.4688 195.719 71.5938C194.469 69.7188 193.5 67.3125 192.812 64.375C192.125 61.4375 191.656 58.1875 191.406 54.625C191.156 51 191 47.4688 190.938 44.0312C190.875 40.5938 190.844 37.4688 190.844 34.6562C190.844 31.8438 190.75 29.7188 190.562 28.2812C190.812 27.6562 191.125 27.2812 191.5 27.1562C191.938 27.0312 192.438 26.9688 193 26.9688C193.5 26.9688 193.938 27.0312 194.312 27.1562C194.75 27.2812 195.125 27.6562 195.438 28.2812C195.438 28.9688 195.438 30.125 195.438 31.75C195.5 33.375 195.594 35.2188 195.719 37.2812C195.844 39.2812 195.969 41.4062 196.094 43.6562C196.219 45.8438 196.312 47.9375 196.375 49.9375C196.5 51.9375 196.594 53.75 196.656 55.375C196.781 56.9375 196.875 58.0938 196.938 58.8438C197 59.2812 197.062 60 197.125 61C197.25 62 197.406 63.0625 197.594 64.1875C197.844 65.25 198.125 66.2188 198.438 67.0938C198.812 67.9688 199.281 68.4375 199.844 68.5C200.781 68.5 201.719 68.0938 202.656 67.2812C203.656 66.4688 204.625 65.4375 205.562 64.1875C206.5 62.9375 207.375 61.5625 208.188 60.0625C209 58.5625 209.719 57.125 210.344 55.75C211.031 54.3125 211.531 53.0312 211.844 51.9062C212.219 50.7812 212.438 49.9688 212.5 49.4688C212.625 48.4062 212.75 46.9062 212.875 44.9688C213 42.9688 213.094 40.8438 213.156 38.5938C213.219 36.3438 213.25 34.2188 213.25 32.2188C213.312 30.2188 213.344 28.6875 213.344 27.625L218.5 27.9062C218.562 32.9688 218.531 37.5625 218.406 41.6875C218.281 45.75 218.25 49.5938 218.312 53.2188C218.375 56.7812 218.656 60.25 219.156 63.625C219.656 67 220.562 70.5 221.875 74.125C221.688 74.3125 221.312 74.5625 220.75 74.875C220.188 75.25 219.781 75.4375 219.531 75.4375C217.969 75.4375 216.906 74.9062 216.344 73.8438C215.844 72.8438 215.5 71.6562 215.312 70.2812C215.188 68.8438 215.062 67.4375 214.938 66.0625C214.875 64.625 214.469 63.5 213.719 62.6875Z" fill="#FD9241"/>
<path d="M240.812 79.375C239.938 80.25 239.094 80.6562 238.281 80.5938C237.531 80.5312 236.906 80.2188 236.406 79.6562C235.969 79.0938 235.656 78.3438 235.469 77.4062C235.344 76.4688 235.531 75.5312 236.031 74.5938L242.031 49.375C240.969 48.125 239.594 46.75 237.906 45.25C236.281 43.75 234.656 42.2188 233.031 40.6562C231.469 39.0938 230.031 37.5312 228.719 35.9688C227.406 34.3438 226.594 32.8125 226.281 31.375C226.281 29.75 227.125 28.9375 228.812 28.9375C229.875 28.75 230.719 28.8438 231.344 29.2188C232.031 29.5938 232.625 30.1562 233.125 30.9062C233.625 31.5938 234.125 32.4688 234.625 33.5312C235.188 34.5938 235.844 35.6875 236.594 36.8125C237.406 37.9375 238.406 39.0938 239.594 40.2812C240.844 41.4062 242.438 42.4375 244.375 43.375C244.75 42.3125 245.094 40.625 245.406 38.3125C245.719 35.9375 245.969 33.4375 246.156 30.8125C246.406 28.125 246.594 25.4688 246.719 22.8438C246.844 20.2188 246.906 18.0625 246.906 16.375C247.094 16.125 247.469 15.9375 248.031 15.8125C248.656 15.625 249.312 15.5625 250 15.625C250.688 15.625 251.312 15.75 251.875 16C252.438 16.1875 252.781 16.5 252.906 16.9375C253.219 19.625 253.156 22.2812 252.719 24.9062C252.344 27.4688 251.844 30.0625 251.219 32.6875C250.656 35.25 250.125 37.8125 249.625 40.375C249.125 42.9375 249 45.5312 249.25 48.1562L265.938 64.9375C266 65 266.094 65.25 266.219 65.6875C266.344 66.125 266.406 66.4375 266.406 66.625C266.406 67 266.375 67.375 266.312 67.75C266.25 68.125 266.094 68.5 265.844 68.875C265.656 69.1875 265.375 69.4375 265 69.625C264.688 69.8125 264.25 69.875 263.688 69.8125C262.875 68.9375 261.844 67.875 260.594 66.625C259.406 65.3125 258.094 63.9688 256.656 62.5938C255.219 61.1562 253.75 59.7812 252.25 58.4688C250.75 57.1562 249.312 56.125 247.938 55.375H247.469L247.375 55.2812C247.062 55.2812 246.781 55.4688 246.531 55.8438C246.281 56.1562 245.938 57.125 245.5 58.75C245.125 60.3125 244.562 62.7188 243.812 65.9688C243.125 69.1562 242.125 73.625 240.812 79.375Z" fill="#FD9241"/>
<g clip-path="url(#clip0)">
<path d="M13.8392 50.6549C8.87457 36.9846 14.543 22.1087 26.5836 15.4753C25.1927 15.7473 23.806 16.13 22.4338 16.6284C7.75252 21.9602 -0.18479 40.8006 5.29168 55.8802C10.7681 70.9598 28.4427 74.401 42.2659 71.2367C43.6381 70.7383 44.9472 70.1419 46.1884 69.4579C32.6973 72.0967 18.8039 64.3252 13.8392 50.6549Z" fill="#5BC95B" fill-opacity="0.6"/>
<path d="M19.2255 37.6486C18.348 36.6914 16.8323 36.6115 15.875 37.489C14.9177 38.3666 14.8379 39.8822 15.7154 40.8396L27.7613 53.9225C28.24 54.4012 28.7984 54.7202 29.4365 54.7202C29.4365 54.7202 29.4365 54.7202 29.5162 54.7202C30.1544 54.7202 30.7925 54.4809 31.1914 54.0022L61.6652 23.6084C62.6225 22.6512 62.6225 21.1354 61.6652 20.2579C60.708 19.3006 59.1922 19.3006 58.3147 20.2579L29.5962 48.8967L19.2255 37.6486Z" fill="#FD9241"/>
<path d="M61.1069 40.9193C59.7507 40.9193 58.7137 41.9564 58.7137 43.3124C58.7137 58.1503 46.5881 70.2761 31.7501 70.2761C16.9121 70.2761 4.78645 58.1505 4.78645 43.3126C4.78645 28.4747 16.9121 16.3489 31.7501 16.3489C33.1063 16.3489 34.1432 15.3119 34.1432 13.9558C34.1432 12.5997 33.1062 11.5625 31.7501 11.5625C14.2795 11.5625 0 25.842 0 43.3126C0 60.7832 14.2795 75.0627 31.7501 75.0627C49.2207 75.0627 63.5002 60.7832 63.5002 43.3126C63.5 41.9564 62.4631 40.9193 61.1069 40.9193Z" fill="#19232C"/>
</g>
<defs>
<clipPath id="clip0">
<rect width="63.5" height="63.5" fill="white" transform="translate(0 11.5625)"/>
</clipPath>
</defs>
</svg>
